<mxfile host="app.diagrams.net" agent="Mozilla/5.0 (X11; Ubuntu; Linux x86_64; rv:131.0) Gecko/20100101 Firefox/131.0" version="24.7.17">
  <diagram name="Page-1" id="lnnpbT0xQBL9_7a_ekoh">
    <mxGraphModel dx="1687" dy="924" grid="1" gridSize="10" guides="1" tooltips="1" connect="1" arrows="1" fold="1" page="1" pageScale="1" pageWidth="850" pageHeight="1100" math="0" shadow="0">
      <root>
        <mxCell id="0" />
        <mxCell id="1" parent="0" />
        <mxCell id="18IUsTbhAdVWXmwDiTD4-4" style="edgeStyle=orthogonalEdgeStyle;rounded=0;orthogonalLoop=1;jettySize=auto;html=1;exitX=1;exitY=0.5;exitDx=0;exitDy=0;entryX=0;entryY=0.5;entryDx=0;entryDy=0;" edge="1" parent="1" source="18IUsTbhAdVWXmwDiTD4-1" target="18IUsTbhAdVWXmwDiTD4-2">
          <mxGeometry relative="1" as="geometry" />
        </mxCell>
        <mxCell id="18IUsTbhAdVWXmwDiTD4-1" value="Input" style="rounded=0;whiteSpace=wrap;html=1;fillColor=#ffe6cc;strokeColor=#d79b00;" vertex="1" parent="1">
          <mxGeometry x="120" y="280" width="40" height="400" as="geometry" />
        </mxCell>
        <mxCell id="18IUsTbhAdVWXmwDiTD4-2" value="" style="shape=orEllipse;perimeter=ellipsePerimeter;whiteSpace=wrap;html=1;backgroundOutline=1;" vertex="1" parent="1">
          <mxGeometry x="200" y="460" width="40" height="40" as="geometry" />
        </mxCell>
        <mxCell id="18IUsTbhAdVWXmwDiTD4-6" style="edgeStyle=orthogonalEdgeStyle;rounded=0;orthogonalLoop=1;jettySize=auto;html=1;exitX=0.5;exitY=1;exitDx=0;exitDy=0;entryX=0.5;entryY=0;entryDx=0;entryDy=0;" edge="1" parent="1" source="18IUsTbhAdVWXmwDiTD4-5" target="18IUsTbhAdVWXmwDiTD4-2">
          <mxGeometry relative="1" as="geometry" />
        </mxCell>
        <mxCell id="18IUsTbhAdVWXmwDiTD4-5" value="k1" style="text;html=1;align=center;verticalAlign=middle;whiteSpace=wrap;rounded=0;" vertex="1" parent="1">
          <mxGeometry x="190" y="210" width="60" height="30" as="geometry" />
        </mxCell>
        <mxCell id="18IUsTbhAdVWXmwDiTD4-7" value="S1" style="rounded=0;whiteSpace=wrap;html=1;" vertex="1" parent="1">
          <mxGeometry x="320" y="280" width="40" height="40" as="geometry" />
        </mxCell>
        <mxCell id="18IUsTbhAdVWXmwDiTD4-8" value="S2" style="rounded=0;whiteSpace=wrap;html=1;" vertex="1" parent="1">
          <mxGeometry x="320" y="360" width="40" height="40" as="geometry" />
        </mxCell>
        <mxCell id="18IUsTbhAdVWXmwDiTD4-9" value="S3" style="rounded=0;whiteSpace=wrap;html=1;" vertex="1" parent="1">
          <mxGeometry x="320" y="440" width="40" height="40" as="geometry" />
        </mxCell>
        <mxCell id="18IUsTbhAdVWXmwDiTD4-14" value="S8" style="rounded=0;whiteSpace=wrap;html=1;" vertex="1" parent="1">
          <mxGeometry x="320" y="640" width="40" height="40" as="geometry" />
        </mxCell>
        <mxCell id="18IUsTbhAdVWXmwDiTD4-15" value="" style="shape=waypoint;sketch=0;fillStyle=solid;size=6;pointerEvents=1;points=[];fillColor=none;resizable=0;rotatable=0;perimeter=centerPerimeter;snapToPoint=1;" vertex="1" parent="1">
          <mxGeometry x="330" y="530" width="20" height="20" as="geometry" />
        </mxCell>
        <mxCell id="18IUsTbhAdVWXmwDiTD4-16" value="" style="shape=waypoint;sketch=0;fillStyle=solid;size=6;pointerEvents=1;points=[];fillColor=none;resizable=0;rotatable=0;perimeter=centerPerimeter;snapToPoint=1;" vertex="1" parent="1">
          <mxGeometry x="330" y="570" width="20" height="20" as="geometry" />
        </mxCell>
        <mxCell id="18IUsTbhAdVWXmwDiTD4-17" value="" style="shape=waypoint;sketch=0;fillStyle=solid;size=6;pointerEvents=1;points=[];fillColor=none;resizable=0;rotatable=0;perimeter=centerPerimeter;snapToPoint=1;" vertex="1" parent="1">
          <mxGeometry x="330" y="610" width="20" height="20" as="geometry" />
        </mxCell>
        <mxCell id="18IUsTbhAdVWXmwDiTD4-18" value="" style="endArrow=none;html=1;rounded=0;exitX=1;exitY=0.5;exitDx=0;exitDy=0;" edge="1" parent="1" source="18IUsTbhAdVWXmwDiTD4-2">
          <mxGeometry width="50" height="50" relative="1" as="geometry">
            <mxPoint x="600" y="470" as="sourcePoint" />
            <mxPoint x="280" y="480" as="targetPoint" />
          </mxGeometry>
        </mxCell>
        <mxCell id="18IUsTbhAdVWXmwDiTD4-19" value="" style="endArrow=classic;html=1;rounded=0;entryX=0;entryY=0.5;entryDx=0;entryDy=0;" edge="1" parent="1" target="18IUsTbhAdVWXmwDiTD4-7">
          <mxGeometry width="50" height="50" relative="1" as="geometry">
            <mxPoint x="280" y="480" as="sourcePoint" />
            <mxPoint x="650" y="420" as="targetPoint" />
            <Array as="points">
              <mxPoint x="280" y="300" />
            </Array>
          </mxGeometry>
        </mxCell>
        <mxCell id="18IUsTbhAdVWXmwDiTD4-20" value="" style="endArrow=classic;html=1;rounded=0;entryX=0;entryY=0.5;entryDx=0;entryDy=0;" edge="1" parent="1" target="18IUsTbhAdVWXmwDiTD4-8">
          <mxGeometry width="50" height="50" relative="1" as="geometry">
            <mxPoint x="280" y="480" as="sourcePoint" />
            <mxPoint x="330" y="270" as="targetPoint" />
            <Array as="points">
              <mxPoint x="280" y="380" />
            </Array>
          </mxGeometry>
        </mxCell>
        <mxCell id="18IUsTbhAdVWXmwDiTD4-21" value="" style="endArrow=classic;html=1;rounded=0;entryX=0;entryY=0.5;entryDx=0;entryDy=0;" edge="1" parent="1" target="18IUsTbhAdVWXmwDiTD4-9">
          <mxGeometry width="50" height="50" relative="1" as="geometry">
            <mxPoint x="280" y="480" as="sourcePoint" />
            <mxPoint x="330" y="350" as="targetPoint" />
            <Array as="points">
              <mxPoint x="280" y="460" />
            </Array>
          </mxGeometry>
        </mxCell>
        <mxCell id="18IUsTbhAdVWXmwDiTD4-22" value="" style="endArrow=classic;html=1;rounded=0;entryX=0;entryY=0.5;entryDx=0;entryDy=0;" edge="1" parent="1" target="18IUsTbhAdVWXmwDiTD4-14">
          <mxGeometry width="50" height="50" relative="1" as="geometry">
            <mxPoint x="280" y="480" as="sourcePoint" />
            <mxPoint x="340" y="360" as="targetPoint" />
            <Array as="points">
              <mxPoint x="280" y="660" />
            </Array>
          </mxGeometry>
        </mxCell>
        <mxCell id="18IUsTbhAdVWXmwDiTD4-23" value="" style="rounded=0;whiteSpace=wrap;html=1;fillColor=#dae8fc;strokeColor=#6c8ebf;" vertex="1" parent="1">
          <mxGeometry x="440" y="280" width="40" height="400" as="geometry" />
        </mxCell>
        <mxCell id="18IUsTbhAdVWXmwDiTD4-25" value="" style="endArrow=none;html=1;rounded=0;exitX=1;exitY=0.5;exitDx=0;exitDy=0;entryX=1;entryY=0.25;entryDx=0;entryDy=0;" edge="1" parent="1" source="18IUsTbhAdVWXmwDiTD4-7" target="18IUsTbhAdVWXmwDiTD4-23">
          <mxGeometry width="50" height="50" relative="1" as="geometry">
            <mxPoint x="600" y="470" as="sourcePoint" />
            <mxPoint x="650" y="420" as="targetPoint" />
            <Array as="points">
              <mxPoint x="440" y="300" />
            </Array>
          </mxGeometry>
        </mxCell>
        <mxCell id="18IUsTbhAdVWXmwDiTD4-26" value="" style="endArrow=none;html=1;rounded=0;exitX=1;exitY=0.5;exitDx=0;exitDy=0;entryX=1;entryY=0.75;entryDx=0;entryDy=0;" edge="1" parent="1" source="18IUsTbhAdVWXmwDiTD4-8" target="18IUsTbhAdVWXmwDiTD4-23">
          <mxGeometry width="50" height="50" relative="1" as="geometry">
            <mxPoint x="600" y="470" as="sourcePoint" />
            <mxPoint x="650" y="420" as="targetPoint" />
            <Array as="points">
              <mxPoint x="440" y="380" />
            </Array>
          </mxGeometry>
        </mxCell>
        <mxCell id="18IUsTbhAdVWXmwDiTD4-27" value="" style="endArrow=none;html=1;rounded=0;exitX=1;exitY=0.5;exitDx=0;exitDy=0;entryX=0.954;entryY=0.064;entryDx=0;entryDy=0;entryPerimeter=0;" edge="1" parent="1" source="18IUsTbhAdVWXmwDiTD4-9" target="18IUsTbhAdVWXmwDiTD4-23">
          <mxGeometry width="50" height="50" relative="1" as="geometry">
            <mxPoint x="600" y="470" as="sourcePoint" />
            <mxPoint x="650" y="420" as="targetPoint" />
            <Array as="points">
              <mxPoint x="440" y="460" />
            </Array>
          </mxGeometry>
        </mxCell>
        <mxCell id="18IUsTbhAdVWXmwDiTD4-28" value="" style="endArrow=none;html=1;rounded=0;exitX=1;exitY=0.5;exitDx=0;exitDy=0;entryX=0.989;entryY=0.353;entryDx=0;entryDy=0;entryPerimeter=0;" edge="1" parent="1" source="18IUsTbhAdVWXmwDiTD4-14" target="18IUsTbhAdVWXmwDiTD4-23">
          <mxGeometry width="50" height="50" relative="1" as="geometry">
            <mxPoint x="600" y="470" as="sourcePoint" />
            <mxPoint x="650" y="420" as="targetPoint" />
            <Array as="points">
              <mxPoint x="440" y="660" />
            </Array>
          </mxGeometry>
        </mxCell>
        <mxCell id="18IUsTbhAdVWXmwDiTD4-29" value="Substitution Layer" style="text;html=1;align=center;verticalAlign=middle;whiteSpace=wrap;rounded=0;" vertex="1" parent="1">
          <mxGeometry x="310" y="730" width="60" height="30" as="geometry" />
        </mxCell>
        <mxCell id="18IUsTbhAdVWXmwDiTD4-30" value="Permutation Layer" style="text;html=1;align=center;verticalAlign=middle;whiteSpace=wrap;rounded=0;" vertex="1" parent="1">
          <mxGeometry x="430" y="730" width="60" height="30" as="geometry" />
        </mxCell>
        <mxCell id="18IUsTbhAdVWXmwDiTD4-31" style="edgeStyle=orthogonalEdgeStyle;rounded=0;orthogonalLoop=1;jettySize=auto;html=1;exitX=1;exitY=0.5;exitDx=0;exitDy=0;entryX=0;entryY=0.5;entryDx=0;entryDy=0;" edge="1" parent="1" target="18IUsTbhAdVWXmwDiTD4-32">
          <mxGeometry relative="1" as="geometry">
            <mxPoint x="480" y="480" as="sourcePoint" />
          </mxGeometry>
        </mxCell>
        <mxCell id="18IUsTbhAdVWXmwDiTD4-32" value="" style="shape=orEllipse;perimeter=ellipsePerimeter;whiteSpace=wrap;html=1;backgroundOutline=1;" vertex="1" parent="1">
          <mxGeometry x="520" y="460" width="40" height="40" as="geometry" />
        </mxCell>
        <mxCell id="18IUsTbhAdVWXmwDiTD4-33" style="edgeStyle=orthogonalEdgeStyle;rounded=0;orthogonalLoop=1;jettySize=auto;html=1;exitX=0.5;exitY=1;exitDx=0;exitDy=0;entryX=0.5;entryY=0;entryDx=0;entryDy=0;" edge="1" parent="1" source="18IUsTbhAdVWXmwDiTD4-34" target="18IUsTbhAdVWXmwDiTD4-32">
          <mxGeometry relative="1" as="geometry" />
        </mxCell>
        <mxCell id="18IUsTbhAdVWXmwDiTD4-34" value="k2" style="text;html=1;align=center;verticalAlign=middle;whiteSpace=wrap;rounded=0;" vertex="1" parent="1">
          <mxGeometry x="510" y="210" width="60" height="30" as="geometry" />
        </mxCell>
        <mxCell id="18IUsTbhAdVWXmwDiTD4-35" value="S1" style="rounded=0;whiteSpace=wrap;html=1;" vertex="1" parent="1">
          <mxGeometry x="640" y="280" width="40" height="40" as="geometry" />
        </mxCell>
        <mxCell id="18IUsTbhAdVWXmwDiTD4-36" value="S2" style="rounded=0;whiteSpace=wrap;html=1;" vertex="1" parent="1">
          <mxGeometry x="640" y="360" width="40" height="40" as="geometry" />
        </mxCell>
        <mxCell id="18IUsTbhAdVWXmwDiTD4-37" value="S3" style="rounded=0;whiteSpace=wrap;html=1;" vertex="1" parent="1">
          <mxGeometry x="640" y="440" width="40" height="40" as="geometry" />
        </mxCell>
        <mxCell id="18IUsTbhAdVWXmwDiTD4-38" value="S8" style="rounded=0;whiteSpace=wrap;html=1;" vertex="1" parent="1">
          <mxGeometry x="640" y="640" width="40" height="40" as="geometry" />
        </mxCell>
        <mxCell id="18IUsTbhAdVWXmwDiTD4-39" value="" style="shape=waypoint;sketch=0;fillStyle=solid;size=6;pointerEvents=1;points=[];fillColor=none;resizable=0;rotatable=0;perimeter=centerPerimeter;snapToPoint=1;" vertex="1" parent="1">
          <mxGeometry x="650" y="530" width="20" height="20" as="geometry" />
        </mxCell>
        <mxCell id="18IUsTbhAdVWXmwDiTD4-40" value="" style="shape=waypoint;sketch=0;fillStyle=solid;size=6;pointerEvents=1;points=[];fillColor=none;resizable=0;rotatable=0;perimeter=centerPerimeter;snapToPoint=1;" vertex="1" parent="1">
          <mxGeometry x="650" y="570" width="20" height="20" as="geometry" />
        </mxCell>
        <mxCell id="18IUsTbhAdVWXmwDiTD4-41" value="" style="shape=waypoint;sketch=0;fillStyle=solid;size=6;pointerEvents=1;points=[];fillColor=none;resizable=0;rotatable=0;perimeter=centerPerimeter;snapToPoint=1;" vertex="1" parent="1">
          <mxGeometry x="650" y="610" width="20" height="20" as="geometry" />
        </mxCell>
        <mxCell id="18IUsTbhAdVWXmwDiTD4-42" value="" style="endArrow=none;html=1;rounded=0;exitX=1;exitY=0.5;exitDx=0;exitDy=0;" edge="1" parent="1" source="18IUsTbhAdVWXmwDiTD4-32">
          <mxGeometry width="50" height="50" relative="1" as="geometry">
            <mxPoint x="920" y="470" as="sourcePoint" />
            <mxPoint x="600" y="480" as="targetPoint" />
          </mxGeometry>
        </mxCell>
        <mxCell id="18IUsTbhAdVWXmwDiTD4-43" value="" style="endArrow=classic;html=1;rounded=0;entryX=0;entryY=0.5;entryDx=0;entryDy=0;" edge="1" parent="1" target="18IUsTbhAdVWXmwDiTD4-35">
          <mxGeometry width="50" height="50" relative="1" as="geometry">
            <mxPoint x="600" y="480" as="sourcePoint" />
            <mxPoint x="970" y="420" as="targetPoint" />
            <Array as="points">
              <mxPoint x="600" y="300" />
            </Array>
          </mxGeometry>
        </mxCell>
        <mxCell id="18IUsTbhAdVWXmwDiTD4-44" value="" style="endArrow=classic;html=1;rounded=0;entryX=0;entryY=0.5;entryDx=0;entryDy=0;" edge="1" parent="1" target="18IUsTbhAdVWXmwDiTD4-36">
          <mxGeometry width="50" height="50" relative="1" as="geometry">
            <mxPoint x="600" y="480" as="sourcePoint" />
            <mxPoint x="650" y="270" as="targetPoint" />
            <Array as="points">
              <mxPoint x="600" y="380" />
            </Array>
          </mxGeometry>
        </mxCell>
        <mxCell id="18IUsTbhAdVWXmwDiTD4-45" value="" style="endArrow=classic;html=1;rounded=0;entryX=0;entryY=0.5;entryDx=0;entryDy=0;" edge="1" parent="1" target="18IUsTbhAdVWXmwDiTD4-37">
          <mxGeometry width="50" height="50" relative="1" as="geometry">
            <mxPoint x="600" y="480" as="sourcePoint" />
            <mxPoint x="650" y="350" as="targetPoint" />
            <Array as="points">
              <mxPoint x="600" y="460" />
            </Array>
          </mxGeometry>
        </mxCell>
        <mxCell id="18IUsTbhAdVWXmwDiTD4-46" value="" style="endArrow=classic;html=1;rounded=0;entryX=0;entryY=0.5;entryDx=0;entryDy=0;" edge="1" parent="1" target="18IUsTbhAdVWXmwDiTD4-38">
          <mxGeometry width="50" height="50" relative="1" as="geometry">
            <mxPoint x="600" y="480" as="sourcePoint" />
            <mxPoint x="660" y="360" as="targetPoint" />
            <Array as="points">
              <mxPoint x="600" y="660" />
            </Array>
          </mxGeometry>
        </mxCell>
        <mxCell id="18IUsTbhAdVWXmwDiTD4-47" value="" style="rounded=0;whiteSpace=wrap;html=1;fillColor=#dae8fc;strokeColor=#6c8ebf;" vertex="1" parent="1">
          <mxGeometry x="760" y="280" width="40" height="400" as="geometry" />
        </mxCell>
        <mxCell id="18IUsTbhAdVWXmwDiTD4-48" value="" style="endArrow=none;html=1;rounded=0;exitX=1;exitY=0.5;exitDx=0;exitDy=0;entryX=1;entryY=0.25;entryDx=0;entryDy=0;" edge="1" parent="1" source="18IUsTbhAdVWXmwDiTD4-35" target="18IUsTbhAdVWXmwDiTD4-47">
          <mxGeometry width="50" height="50" relative="1" as="geometry">
            <mxPoint x="920" y="470" as="sourcePoint" />
            <mxPoint x="970" y="420" as="targetPoint" />
            <Array as="points">
              <mxPoint x="760" y="300" />
            </Array>
          </mxGeometry>
        </mxCell>
        <mxCell id="18IUsTbhAdVWXmwDiTD4-49" value="" style="endArrow=none;html=1;rounded=0;exitX=1;exitY=0.5;exitDx=0;exitDy=0;entryX=1;entryY=0.75;entryDx=0;entryDy=0;" edge="1" parent="1" source="18IUsTbhAdVWXmwDiTD4-36" target="18IUsTbhAdVWXmwDiTD4-47">
          <mxGeometry width="50" height="50" relative="1" as="geometry">
            <mxPoint x="920" y="470" as="sourcePoint" />
            <mxPoint x="970" y="420" as="targetPoint" />
            <Array as="points">
              <mxPoint x="760" y="380" />
            </Array>
          </mxGeometry>
        </mxCell>
        <mxCell id="18IUsTbhAdVWXmwDiTD4-50" value="" style="endArrow=none;html=1;rounded=0;exitX=1;exitY=0.5;exitDx=0;exitDy=0;entryX=0.954;entryY=0.064;entryDx=0;entryDy=0;entryPerimeter=0;" edge="1" parent="1" source="18IUsTbhAdVWXmwDiTD4-37" target="18IUsTbhAdVWXmwDiTD4-47">
          <mxGeometry width="50" height="50" relative="1" as="geometry">
            <mxPoint x="920" y="470" as="sourcePoint" />
            <mxPoint x="970" y="420" as="targetPoint" />
            <Array as="points">
              <mxPoint x="760" y="460" />
            </Array>
          </mxGeometry>
        </mxCell>
        <mxCell id="18IUsTbhAdVWXmwDiTD4-51" value="" style="endArrow=none;html=1;rounded=0;exitX=1;exitY=0.5;exitDx=0;exitDy=0;entryX=0.989;entryY=0.353;entryDx=0;entryDy=0;entryPerimeter=0;" edge="1" parent="1" source="18IUsTbhAdVWXmwDiTD4-38" target="18IUsTbhAdVWXmwDiTD4-47">
          <mxGeometry width="50" height="50" relative="1" as="geometry">
            <mxPoint x="920" y="470" as="sourcePoint" />
            <mxPoint x="970" y="420" as="targetPoint" />
            <Array as="points">
              <mxPoint x="760" y="660" />
            </Array>
          </mxGeometry>
        </mxCell>
        <mxCell id="18IUsTbhAdVWXmwDiTD4-52" value="Substitution Layer" style="text;html=1;align=center;verticalAlign=middle;whiteSpace=wrap;rounded=0;" vertex="1" parent="1">
          <mxGeometry x="630" y="730" width="60" height="30" as="geometry" />
        </mxCell>
        <mxCell id="18IUsTbhAdVWXmwDiTD4-53" value="Permutation Layer" style="text;html=1;align=center;verticalAlign=middle;whiteSpace=wrap;rounded=0;" vertex="1" parent="1">
          <mxGeometry x="750" y="730" width="60" height="30" as="geometry" />
        </mxCell>
        <mxCell id="18IUsTbhAdVWXmwDiTD4-54" value="" style="shape=waypoint;sketch=0;fillStyle=solid;size=6;pointerEvents=1;points=[];fillColor=none;resizable=0;rotatable=0;perimeter=centerPerimeter;snapToPoint=1;" vertex="1" parent="1">
          <mxGeometry x="820" y="450" width="20" height="20" as="geometry" />
        </mxCell>
        <mxCell id="18IUsTbhAdVWXmwDiTD4-55" value="" style="shape=waypoint;sketch=0;fillStyle=solid;size=6;pointerEvents=1;points=[];fillColor=none;resizable=0;rotatable=0;perimeter=centerPerimeter;snapToPoint=1;" vertex="1" parent="1">
          <mxGeometry x="850" y="450" width="20" height="20" as="geometry" />
        </mxCell>
        <mxCell id="18IUsTbhAdVWXmwDiTD4-56" value="" style="shape=waypoint;sketch=0;fillStyle=solid;size=6;pointerEvents=1;points=[];fillColor=none;resizable=0;rotatable=0;perimeter=centerPerimeter;snapToPoint=1;" vertex="1" parent="1">
          <mxGeometry x="890" y="450" width="20" height="20" as="geometry" />
        </mxCell>
        <mxCell id="18IUsTbhAdVWXmwDiTD4-58" value="" style="shape=orEllipse;perimeter=ellipsePerimeter;whiteSpace=wrap;html=1;backgroundOutline=1;" vertex="1" parent="1">
          <mxGeometry x="950" y="460" width="40" height="40" as="geometry" />
        </mxCell>
        <mxCell id="18IUsTbhAdVWXmwDiTD4-59" style="edgeStyle=orthogonalEdgeStyle;rounded=0;orthogonalLoop=1;jettySize=auto;html=1;exitX=0.5;exitY=1;exitDx=0;exitDy=0;entryX=0.5;entryY=0;entryDx=0;entryDy=0;" edge="1" parent="1" source="18IUsTbhAdVWXmwDiTD4-60" target="18IUsTbhAdVWXmwDiTD4-58">
          <mxGeometry relative="1" as="geometry" />
        </mxCell>
        <mxCell id="18IUsTbhAdVWXmwDiTD4-60" value="k3" style="text;html=1;align=center;verticalAlign=middle;whiteSpace=wrap;rounded=0;" vertex="1" parent="1">
          <mxGeometry x="940" y="210" width="60" height="30" as="geometry" />
        </mxCell>
        <mxCell id="18IUsTbhAdVWXmwDiTD4-61" value="S1" style="rounded=0;whiteSpace=wrap;html=1;" vertex="1" parent="1">
          <mxGeometry x="1070" y="280" width="40" height="40" as="geometry" />
        </mxCell>
        <mxCell id="18IUsTbhAdVWXmwDiTD4-62" value="S2" style="rounded=0;whiteSpace=wrap;html=1;" vertex="1" parent="1">
          <mxGeometry x="1070" y="360" width="40" height="40" as="geometry" />
        </mxCell>
        <mxCell id="18IUsTbhAdVWXmwDiTD4-63" value="S3" style="rounded=0;whiteSpace=wrap;html=1;" vertex="1" parent="1">
          <mxGeometry x="1070" y="440" width="40" height="40" as="geometry" />
        </mxCell>
        <mxCell id="18IUsTbhAdVWXmwDiTD4-64" value="S8" style="rounded=0;whiteSpace=wrap;html=1;" vertex="1" parent="1">
          <mxGeometry x="1070" y="640" width="40" height="40" as="geometry" />
        </mxCell>
        <mxCell id="18IUsTbhAdVWXmwDiTD4-65" value="" style="shape=waypoint;sketch=0;fillStyle=solid;size=6;pointerEvents=1;points=[];fillColor=none;resizable=0;rotatable=0;perimeter=centerPerimeter;snapToPoint=1;" vertex="1" parent="1">
          <mxGeometry x="1080" y="530" width="20" height="20" as="geometry" />
        </mxCell>
        <mxCell id="18IUsTbhAdVWXmwDiTD4-66" value="" style="shape=waypoint;sketch=0;fillStyle=solid;size=6;pointerEvents=1;points=[];fillColor=none;resizable=0;rotatable=0;perimeter=centerPerimeter;snapToPoint=1;" vertex="1" parent="1">
          <mxGeometry x="1080" y="570" width="20" height="20" as="geometry" />
        </mxCell>
        <mxCell id="18IUsTbhAdVWXmwDiTD4-67" value="" style="shape=waypoint;sketch=0;fillStyle=solid;size=6;pointerEvents=1;points=[];fillColor=none;resizable=0;rotatable=0;perimeter=centerPerimeter;snapToPoint=1;" vertex="1" parent="1">
          <mxGeometry x="1080" y="610" width="20" height="20" as="geometry" />
        </mxCell>
        <mxCell id="18IUsTbhAdVWXmwDiTD4-68" value="" style="endArrow=none;html=1;rounded=0;exitX=1;exitY=0.5;exitDx=0;exitDy=0;" edge="1" parent="1" source="18IUsTbhAdVWXmwDiTD4-58">
          <mxGeometry width="50" height="50" relative="1" as="geometry">
            <mxPoint x="1350" y="470" as="sourcePoint" />
            <mxPoint x="1030" y="480" as="targetPoint" />
          </mxGeometry>
        </mxCell>
        <mxCell id="18IUsTbhAdVWXmwDiTD4-69" value="" style="endArrow=classic;html=1;rounded=0;entryX=0;entryY=0.5;entryDx=0;entryDy=0;" edge="1" parent="1" target="18IUsTbhAdVWXmwDiTD4-61">
          <mxGeometry width="50" height="50" relative="1" as="geometry">
            <mxPoint x="1030" y="480" as="sourcePoint" />
            <mxPoint x="1400" y="420" as="targetPoint" />
            <Array as="points">
              <mxPoint x="1030" y="300" />
            </Array>
          </mxGeometry>
        </mxCell>
        <mxCell id="18IUsTbhAdVWXmwDiTD4-70" value="" style="endArrow=classic;html=1;rounded=0;entryX=0;entryY=0.5;entryDx=0;entryDy=0;" edge="1" parent="1" target="18IUsTbhAdVWXmwDiTD4-62">
          <mxGeometry width="50" height="50" relative="1" as="geometry">
            <mxPoint x="1030" y="480" as="sourcePoint" />
            <mxPoint x="1080" y="270" as="targetPoint" />
            <Array as="points">
              <mxPoint x="1030" y="380" />
            </Array>
          </mxGeometry>
        </mxCell>
        <mxCell id="18IUsTbhAdVWXmwDiTD4-71" value="" style="endArrow=classic;html=1;rounded=0;entryX=0;entryY=0.5;entryDx=0;entryDy=0;" edge="1" parent="1" target="18IUsTbhAdVWXmwDiTD4-63">
          <mxGeometry width="50" height="50" relative="1" as="geometry">
            <mxPoint x="1030" y="480" as="sourcePoint" />
            <mxPoint x="1080" y="350" as="targetPoint" />
            <Array as="points">
              <mxPoint x="1030" y="460" />
            </Array>
          </mxGeometry>
        </mxCell>
        <mxCell id="18IUsTbhAdVWXmwDiTD4-72" value="" style="endArrow=classic;html=1;rounded=0;entryX=0;entryY=0.5;entryDx=0;entryDy=0;" edge="1" parent="1" target="18IUsTbhAdVWXmwDiTD4-64">
          <mxGeometry width="50" height="50" relative="1" as="geometry">
            <mxPoint x="1030" y="480" as="sourcePoint" />
            <mxPoint x="1090" y="360" as="targetPoint" />
            <Array as="points">
              <mxPoint x="1030" y="660" />
            </Array>
          </mxGeometry>
        </mxCell>
        <mxCell id="18IUsTbhAdVWXmwDiTD4-83" style="edgeStyle=orthogonalEdgeStyle;rounded=0;orthogonalLoop=1;jettySize=auto;html=1;exitX=1;exitY=0.5;exitDx=0;exitDy=0;entryX=0;entryY=0.5;entryDx=0;entryDy=0;" edge="1" parent="1" source="18IUsTbhAdVWXmwDiTD4-73" target="18IUsTbhAdVWXmwDiTD4-80">
          <mxGeometry relative="1" as="geometry" />
        </mxCell>
        <mxCell id="18IUsTbhAdVWXmwDiTD4-73" value="" style="rounded=0;whiteSpace=wrap;html=1;fillColor=#dae8fc;strokeColor=#6c8ebf;" vertex="1" parent="1">
          <mxGeometry x="1190" y="280" width="40" height="400" as="geometry" />
        </mxCell>
        <mxCell id="18IUsTbhAdVWXmwDiTD4-74" value="" style="endArrow=none;html=1;rounded=0;exitX=1;exitY=0.5;exitDx=0;exitDy=0;entryX=1;entryY=0.25;entryDx=0;entryDy=0;" edge="1" parent="1" source="18IUsTbhAdVWXmwDiTD4-61" target="18IUsTbhAdVWXmwDiTD4-73">
          <mxGeometry width="50" height="50" relative="1" as="geometry">
            <mxPoint x="1350" y="470" as="sourcePoint" />
            <mxPoint x="1400" y="420" as="targetPoint" />
            <Array as="points">
              <mxPoint x="1190" y="300" />
            </Array>
          </mxGeometry>
        </mxCell>
        <mxCell id="18IUsTbhAdVWXmwDiTD4-75" value="" style="endArrow=none;html=1;rounded=0;exitX=1;exitY=0.5;exitDx=0;exitDy=0;entryX=1;entryY=0.75;entryDx=0;entryDy=0;" edge="1" parent="1" source="18IUsTbhAdVWXmwDiTD4-62" target="18IUsTbhAdVWXmwDiTD4-73">
          <mxGeometry width="50" height="50" relative="1" as="geometry">
            <mxPoint x="1350" y="470" as="sourcePoint" />
            <mxPoint x="1400" y="420" as="targetPoint" />
            <Array as="points">
              <mxPoint x="1190" y="380" />
            </Array>
          </mxGeometry>
        </mxCell>
        <mxCell id="18IUsTbhAdVWXmwDiTD4-76" value="" style="endArrow=none;html=1;rounded=0;exitX=1;exitY=0.5;exitDx=0;exitDy=0;entryX=0.954;entryY=0.064;entryDx=0;entryDy=0;entryPerimeter=0;" edge="1" parent="1" source="18IUsTbhAdVWXmwDiTD4-63" target="18IUsTbhAdVWXmwDiTD4-73">
          <mxGeometry width="50" height="50" relative="1" as="geometry">
            <mxPoint x="1350" y="470" as="sourcePoint" />
            <mxPoint x="1400" y="420" as="targetPoint" />
            <Array as="points">
              <mxPoint x="1190" y="460" />
            </Array>
          </mxGeometry>
        </mxCell>
        <mxCell id="18IUsTbhAdVWXmwDiTD4-77" value="" style="endArrow=none;html=1;rounded=0;exitX=1;exitY=0.5;exitDx=0;exitDy=0;entryX=0.989;entryY=0.353;entryDx=0;entryDy=0;entryPerimeter=0;" edge="1" parent="1" source="18IUsTbhAdVWXmwDiTD4-64" target="18IUsTbhAdVWXmwDiTD4-73">
          <mxGeometry width="50" height="50" relative="1" as="geometry">
            <mxPoint x="1350" y="470" as="sourcePoint" />
            <mxPoint x="1400" y="420" as="targetPoint" />
            <Array as="points">
              <mxPoint x="1190" y="660" />
            </Array>
          </mxGeometry>
        </mxCell>
        <mxCell id="18IUsTbhAdVWXmwDiTD4-78" value="Substitution Layer" style="text;html=1;align=center;verticalAlign=middle;whiteSpace=wrap;rounded=0;" vertex="1" parent="1">
          <mxGeometry x="1060" y="730" width="60" height="30" as="geometry" />
        </mxCell>
        <mxCell id="18IUsTbhAdVWXmwDiTD4-79" value="Permutation Layer" style="text;html=1;align=center;verticalAlign=middle;whiteSpace=wrap;rounded=0;" vertex="1" parent="1">
          <mxGeometry x="1180" y="730" width="60" height="30" as="geometry" />
        </mxCell>
        <mxCell id="18IUsTbhAdVWXmwDiTD4-85" style="edgeStyle=orthogonalEdgeStyle;rounded=0;orthogonalLoop=1;jettySize=auto;html=1;exitX=1;exitY=0.5;exitDx=0;exitDy=0;entryX=0;entryY=0.5;entryDx=0;entryDy=0;" edge="1" parent="1" source="18IUsTbhAdVWXmwDiTD4-80" target="18IUsTbhAdVWXmwDiTD4-84">
          <mxGeometry relative="1" as="geometry" />
        </mxCell>
        <mxCell id="18IUsTbhAdVWXmwDiTD4-80" value="" style="shape=orEllipse;perimeter=ellipsePerimeter;whiteSpace=wrap;html=1;backgroundOutline=1;" vertex="1" parent="1">
          <mxGeometry x="1275" y="460" width="40" height="40" as="geometry" />
        </mxCell>
        <mxCell id="18IUsTbhAdVWXmwDiTD4-81" style="edgeStyle=orthogonalEdgeStyle;rounded=0;orthogonalLoop=1;jettySize=auto;html=1;exitX=0.5;exitY=1;exitDx=0;exitDy=0;entryX=0.5;entryY=0;entryDx=0;entryDy=0;" edge="1" parent="1" target="18IUsTbhAdVWXmwDiTD4-80">
          <mxGeometry relative="1" as="geometry">
            <mxPoint x="1295" y="240" as="sourcePoint" />
          </mxGeometry>
        </mxCell>
        <mxCell id="18IUsTbhAdVWXmwDiTD4-82" value="kn" style="text;html=1;align=center;verticalAlign=middle;whiteSpace=wrap;rounded=0;" vertex="1" parent="1">
          <mxGeometry x="1265" y="210" width="60" height="30" as="geometry" />
        </mxCell>
        <mxCell id="18IUsTbhAdVWXmwDiTD4-84" value="Output" style="rounded=0;whiteSpace=wrap;html=1;fillColor=#e1d5e7;strokeColor=#9673a6;" vertex="1" parent="1">
          <mxGeometry x="1360" y="280" width="40" height="400" as="geometry" />
        </mxCell>
        <mxCell id="18IUsTbhAdVWXmwDiTD4-87" value="Key Expanxion" style="shape=trapezoid;perimeter=trapezoidPerimeter;whiteSpace=wrap;html=1;fixedSize=1;fillColor=#f8cecc;strokeColor=#b85450;dashed=1;" vertex="1" parent="1">
          <mxGeometry x="740" y="70" width="120" height="60" as="geometry" />
        </mxCell>
        <mxCell id="18IUsTbhAdVWXmwDiTD4-89" value="" style="edgeStyle=orthogonalEdgeStyle;rounded=0;orthogonalLoop=1;jettySize=auto;html=1;" edge="1" parent="1" source="18IUsTbhAdVWXmwDiTD4-88" target="18IUsTbhAdVWXmwDiTD4-87">
          <mxGeometry relative="1" as="geometry" />
        </mxCell>
        <mxCell id="18IUsTbhAdVWXmwDiTD4-88" value="k" style="text;html=1;align=center;verticalAlign=middle;whiteSpace=wrap;rounded=0;" vertex="1" parent="1">
          <mxGeometry x="770" y="10" width="60" height="30" as="geometry" />
        </mxCell>
        <mxCell id="18IUsTbhAdVWXmwDiTD4-90" value="" style="endArrow=classic;html=1;rounded=0;exitX=0.5;exitY=1;exitDx=0;exitDy=0;entryX=0.5;entryY=0;entryDx=0;entryDy=0;dashed=1;" edge="1" parent="1" source="18IUsTbhAdVWXmwDiTD4-87" target="18IUsTbhAdVWXmwDiTD4-5">
          <mxGeometry width="50" height="50" relative="1" as="geometry">
            <mxPoint x="770" y="380" as="sourcePoint" />
            <mxPoint x="820" y="330" as="targetPoint" />
            <Array as="points">
              <mxPoint x="800" y="160" />
              <mxPoint x="220" y="160" />
            </Array>
          </mxGeometry>
        </mxCell>
        <mxCell id="18IUsTbhAdVWXmwDiTD4-91" value="" style="endArrow=classic;html=1;rounded=0;exitX=0.5;exitY=1;exitDx=0;exitDy=0;entryX=0.5;entryY=0;entryDx=0;entryDy=0;dashed=1;" edge="1" parent="1" source="18IUsTbhAdVWXmwDiTD4-87" target="18IUsTbhAdVWXmwDiTD4-34">
          <mxGeometry width="50" height="50" relative="1" as="geometry">
            <mxPoint x="770" y="270" as="sourcePoint" />
            <mxPoint x="820" y="270" as="targetPoint" />
            <Array as="points">
              <mxPoint x="800" y="160" />
              <mxPoint x="540" y="160" />
            </Array>
          </mxGeometry>
        </mxCell>
        <mxCell id="18IUsTbhAdVWXmwDiTD4-92" value="" style="endArrow=classic;html=1;rounded=0;exitX=0.5;exitY=1;exitDx=0;exitDy=0;entryX=0.5;entryY=0;entryDx=0;entryDy=0;dashed=1;" edge="1" parent="1" source="18IUsTbhAdVWXmwDiTD4-87" target="18IUsTbhAdVWXmwDiTD4-60">
          <mxGeometry width="50" height="50" relative="1" as="geometry">
            <mxPoint x="770" y="320" as="sourcePoint" />
            <mxPoint x="820" y="270" as="targetPoint" />
            <Array as="points">
              <mxPoint x="800" y="160" />
              <mxPoint x="970" y="160" />
            </Array>
          </mxGeometry>
        </mxCell>
        <mxCell id="18IUsTbhAdVWXmwDiTD4-93" value="" style="endArrow=classic;html=1;rounded=0;exitX=0.5;exitY=1;exitDx=0;exitDy=0;entryX=0.5;entryY=0;entryDx=0;entryDy=0;dashed=1;" edge="1" parent="1" source="18IUsTbhAdVWXmwDiTD4-87" target="18IUsTbhAdVWXmwDiTD4-82">
          <mxGeometry width="50" height="50" relative="1" as="geometry">
            <mxPoint x="770" y="320" as="sourcePoint" />
            <mxPoint x="820" y="270" as="targetPoint" />
            <Array as="points">
              <mxPoint x="800" y="160" />
              <mxPoint x="1295" y="160" />
            </Array>
          </mxGeometry>
        </mxCell>
        <mxCell id="18IUsTbhAdVWXmwDiTD4-94" value="4 x 4 Input" style="text;html=1;align=center;verticalAlign=middle;whiteSpace=wrap;rounded=0;" vertex="1" parent="1">
          <mxGeometry x="110" y="730" width="60" height="30" as="geometry" />
        </mxCell>
        <mxCell id="18IUsTbhAdVWXmwDiTD4-95" value="4 x 4 Output" style="text;html=1;align=center;verticalAlign=middle;whiteSpace=wrap;rounded=0;" vertex="1" parent="1">
          <mxGeometry x="1350" y="730" width="60" height="30" as="geometry" />
        </mxCell>
        <mxCell id="18IUsTbhAdVWXmwDiTD4-96" value="10 rounds" style="text;html=1;align=center;verticalAlign=middle;whiteSpace=wrap;rounded=0;fillColor=#d5e8d4;strokeColor=#82b366;dashed=1;" vertex="1" parent="1">
          <mxGeometry x="1215" y="50" width="60" height="30" as="geometry" />
        </mxCell>
        <mxCell id="18IUsTbhAdVWXmwDiTD4-97" value="" style="endArrow=classic;html=1;rounded=0;exitX=0.5;exitY=1;exitDx=0;exitDy=0;dashed=1;" edge="1" parent="1" source="18IUsTbhAdVWXmwDiTD4-96">
          <mxGeometry width="50" height="50" relative="1" as="geometry">
            <mxPoint x="780" y="400" as="sourcePoint" />
            <mxPoint x="1020" y="140" as="targetPoint" />
          </mxGeometry>
        </mxCell>
      </root>
    </mxGraphModel>
  </diagram>
</mxfile>
